HIERARCHY
ROOT joint_0
{
	OFFSET 0.000000 0.000000 0.000000
	CHANNELS 6 Xposition Yposition Zposition Zrotation Yrotation Xrotation 
	JOINT joint_1
	{
		OFFSET 4.520508 -1.939880 86.268921
		CHANNELS 3 Zrotation Yrotation Xrotation
		JOINT joint_2
		{
			OFFSET -4.459717 -0.438538 78.934082
			CHANNELS 3 Zrotation Yrotation Xrotation
			JOINT joint_3
			{
				OFFSET -5.197754 -0.781128 78.796997
				CHANNELS 3 Zrotation Yrotation Xrotation
				JOINT joint_4
				{
					OFFSET 2.952026 -3.710571 109.812988
					CHANNELS 3 Zrotation Yrotation Xrotation
					JOINT joint_5
					{
						OFFSET 24.716797 -5.488037 87.903931
						CHANNELS 3 Zrotation Yrotation Xrotation
						End Site
						{
							OFFSET 0.000000 0.000000 0.000000
						}
					}
				}
				JOINT joint_6
				{
					OFFSET -3.154419 -25.484680 60.934937
					CHANNELS 3 Zrotation Yrotation Xrotation
					JOINT joint_7
					{
						OFFSET -28.997192 -144.472229 -32.671997
						CHANNELS 3 Zrotation Yrotation Xrotation
						JOINT joint_8
						{
							OFFSET 19.867676 -18.614380 -249.897949
							CHANNELS 3 Zrotation Yrotation Xrotation
							JOINT joint_9
							{
								OFFSET 5.281982 -13.816650 -264.993042
								CHANNELS 3 Zrotation Yrotation Xrotation
								End Site
								{
									OFFSET 0.000000 0.000000 0.000000
								}
							}
						}
					}
				}
				JOINT joint_10
				{
					OFFSET 6.494995 21.336792 62.257935
					CHANNELS 3 Zrotation Yrotation Xrotation
					JOINT joint_11
					{
						OFFSET 31.106567 145.200745 -27.007935
						CHANNELS 3 Zrotation Yrotation Xrotation
						JOINT joint_12
						{
							OFFSET 29.119141 24.684326 -248.460083
							CHANNELS 3 Zrotation Yrotation Xrotation
							JOINT joint_13
							{
								OFFSET 21.220093 31.248413 -262.703979
								CHANNELS 3 Zrotation Yrotation Xrotation
								End Site
								{
									OFFSET 0.000000 0.000000 0.000000
								}
							}
						}
					}
				}
			}
		}
	}
	JOINT joint_14
	{
		OFFSET -15.458496 -88.861694 -109.593018
		CHANNELS 3 Zrotation Yrotation Xrotation
		JOINT joint_15
		{
			OFFSET -6.193359 6.837952 -506.710999
			CHANNELS 3 Zrotation Yrotation Xrotation
			JOINT joint_16
			{
				OFFSET -35.096680 13.289795 -435.677025
				CHANNELS 3 Zrotation Yrotation Xrotation
				JOINT joint_17
				{
					OFFSET 158.491211 -33.916565 -71.771002
					CHANNELS 3 Zrotation Yrotation Xrotation
					End Site
					{
						OFFSET 0.000000 0.000000 0.000000
					}
				}
			}
		}
	}
	JOINT joint_18
	{
		OFFSET 23.116943 86.574158 -110.082031
		CHANNELS 3 Zrotation Yrotation Xrotation
		JOINT joint_19
		{
			OFFSET -6.125854 -0.283569 -506.757019
			CHANNELS 3 Zrotation Yrotation Xrotation
			JOINT joint_20
			{
				OFFSET -63.240234 11.589966 -432.537994
				CHANNELS 3 Zrotation Yrotation Xrotation
				JOINT joint_21
				{
					OFFSET 156.074219 -41.487305 -73.077999
					CHANNELS 3 Zrotation Yrotation Xrotation
					End Site
					{
						OFFSET 0.000000 0.000000 0.000000
					}
				}
			}
		}
	}
}
MOTION
Frames: 13
Frame Time: 0.016667
-1936.882935 800.747803 1139.657959 10.069575 0.444629 0.095555 -0.414055 -0.826010 -0.455623 -0.379233 0.167756 0.078029 -0.390122 -0.139379 -0.047329 -0.396744 1.170968 1.668726 0.000000 0.000000 0.000000 1.991403 -0.055849 -0.201875 0.179318 0.154741 0.806517 -0.033366 -0.542791 -2.492429 0.000000 0.000000 0.000000 -2.296784 -0.318227 0.209711 -0.111761 0.290113 -0.730617 -0.290844 -2.100211 -0.242714 0.000000 0.000000 0.000000 -0.655688 -1.267139 0.635830 -0.600936 1.841648 0.134979 -0.628565 -1.373511 -0.578388 0.000000 0.000000 0.000000 0.188559 0.717956 -0.472996 0.203750 -1.953786 -1.189298 0.091418 0.566276 0.193320 0.000000 0.000000 0.000000 
-1936.973511 800.748901 1139.645996 10.061898 0.437520 0.085984 -0.414895 -0.831710 -0.469083 -0.379020 0.168428 0.081446 -0.390256 -0.140546 -0.049060 -0.398419 1.164389 1.673235 0.000000 0.000000 0.000000 1.994116 -0.047035 -0.197643 0.178758 0.165092 0.806741 -0.033729 -0.536183 -2.491639 0.000000 0.000000 0.000000 -2.295373 -0.302135 0.204420 -0.111289 0.306286 -0.737051 -0.289611 -2.098134 -0.231560 0.000000 0.000000 0.000000 -0.653579 -1.263069 0.643958 -0.598864 1.836841 0.137910 -0.626155 -1.366318 -0.575758 0.000000 0.000000 0.000000 0.191557 0.717917 -0.466379 0.206729 -1.945257 -1.184228 0.094614 0.557072 0.192373 0.000000 0.000000 0.000000 
-1937.060181 800.761414 1139.634033 10.052252 0.429975 0.076736 -0.415915 -0.838145 -0.479021 -0.379229 0.169685 0.084013 -0.390802 -0.141603 -0.051423 -0.400390 1.156385 1.678467 0.000000 0.000000 0.000000 1.997155 -0.037591 -0.193689 0.177969 0.176463 0.805339 -0.034034 -0.530183 -2.490242 0.000000 0.000000 0.000000 -2.294782 -0.285175 0.199803 -0.110681 0.323698 -0.743738 -0.288677 -2.097121 -0.222497 0.000000 0.000000 0.000000 -0.650907 -1.258932 0.650491 -0.596255 1.833199 0.141922 -0.623167 -1.359387 -0.572923 0.000000 0.000000 0.000000 0.195034 0.718852 -0.461236 0.210168 -1.936774 -1.178108 0.098376 0.547844 0.191684 0.000000 0.000000 0.000000 
-1937.140259 800.779602 1139.620972 10.042958 0.421639 0.068164 -0.417358 -0.844007 -0.488223 -0.379897 0.171237 0.086639 -0.391745 -0.143065 -0.052672 -0.402336 1.151284 1.684218 0.000000 0.000000 0.000000 1.998659 -0.027657 -0.189702 0.177148 0.188152 0.803123 -0.034369 -0.524429 -2.490145 0.000000 0.000000 0.000000 -2.293300 -0.269329 0.195065 -0.110206 0.339884 -0.750895 -0.287673 -2.095412 -0.213721 0.000000 0.000000 0.000000 -0.648451 -1.254353 0.656055 -0.593856 1.831594 0.145786 -0.620450 -1.354017 -0.570544 0.000000 0.000000 0.000000 0.198598 0.720230 -0.458195 0.213649 -1.926509 -1.169830 0.102404 0.537301 0.190771 0.000000 0.000000 0.000000 
-1937.211426 800.807739 1139.608032 10.032731 0.412650 0.060182 -0.418362 -0.849366 -0.493706 -0.380444 0.171790 0.087572 -0.392423 -0.141926 -0.053888 -0.404521 1.147287 1.691009 0.000000 0.000000 0.000000 1.998011 -0.017952 -0.183644 0.176160 0.200142 0.798079 -0.034699 -0.520104 -2.492342 0.000000 0.000000 0.000000 -2.290596 -0.255710 0.189502 -0.109870 0.353336 -0.757695 -0.286633 -2.092659 -0.206146 0.000000 0.000000 0.000000 -0.645278 -1.249689 0.660477 -0.590722 1.832351 0.149278 -0.617103 -1.349243 -0.568008 0.000000 0.000000 0.000000 0.202503 0.722187 -0.458376 0.217392 -1.914552 -1.157510 0.107140 0.526394 0.190093 0.000000 0.000000 0.000000 
-1937.278198 800.842346 1139.593994 10.022111 0.402217 0.052728 -0.418791 -0.851318 -0.498060 -0.380472 0.170454 0.089170 -0.392573 -0.141251 -0.054488 -0.406610 1.145873 1.698001 0.000000 0.000000 0.000000 1.993330 -0.007388 -0.178074 0.175159 0.212123 0.792327 -0.035058 -0.515793 -2.495500 0.000000 0.000000 0.000000 -2.289408 -0.243326 0.183152 -0.109538 0.365610 -0.764233 -0.285554 -2.088926 -0.199711 0.000000 0.000000 0.000000 -0.642063 -1.244262 0.664058 -0.587538 1.835507 0.152484 -0.613794 -1.346052 -0.565828 0.000000 0.000000 0.000000 0.206426 0.725381 -0.460596 0.221111 -1.901276 -1.142798 0.112126 0.514463 0.189260 0.000000 0.000000 0.000000 
-1937.345947 800.876831 1139.578979 10.010474 0.391494 0.044724 -0.419210 -0.852562 -0.499865 -0.380744 0.168826 0.088996 -0.392774 -0.140138 -0.054003 -0.408652 1.144661 1.704860 0.000000 0.000000 0.000000 1.989296 0.002364 -0.172489 0.174280 0.223213 0.787588 -0.035492 -0.509803 -2.497893 0.000000 0.000000 0.000000 -2.287794 -0.232509 0.178239 -0.109279 0.376423 -0.770282 -0.284848 -2.086928 -0.195029 0.000000 0.000000 0.000000 -0.638587 -1.239376 0.667886 -0.584062 1.840234 0.156367 -0.610183 -1.343199 -0.563583 0.000000 0.000000 0.000000 0.210715 0.728096 -0.460831 0.225243 -1.886121 -1.130816 0.117077 0.501856 0.188231 0.000000 0.000000 0.000000 
-1937.419434 800.908752 1139.563965 9.997547 0.380720 0.035580 -0.419443 -0.853154 -0.498541 -0.381119 0.167767 0.086905 -0.392935 -0.139133 -0.053119 -0.410710 1.144520 1.712018 0.000000 0.000000 0.000000 1.986240 0.010514 -0.166235 0.173594 0.232804 0.783905 -0.036123 -0.499916 -2.499301 0.000000 0.000000 0.000000 -2.286016 -0.223624 0.175859 -0.109113 0.385693 -0.775845 -0.284814 -2.088235 -0.193217 0.000000 0.000000 0.000000 -0.634795 -1.236057 0.672637 -0.580198 1.847409 0.160840 -0.606204 -1.341008 -0.561314 0.000000 0.000000 0.000000 0.215624 0.729639 -0.457026 0.230088 -1.868672 -1.124199 0.121911 0.488795 0.187027 0.000000 0.000000 0.000000 
-1937.493774 800.939575 1139.546997 9.983057 0.369449 0.026090 -0.418357 -0.853373 -0.497318 -0.380044 0.168063 0.086868 -0.391824 -0.138985 -0.052637 -0.413113 1.144238 1.720326 0.000000 0.000000 0.000000 1.979411 0.018501 -0.160241 0.173104 0.240992 0.781684 -0.036844 -0.488088 -2.499986 0.000000 0.000000 0.000000 -2.287574 -0.216705 0.175000 -0.108983 0.393837 -0.780964 -0.285116 -2.090982 -0.193179 0.000000 0.000000 0.000000 -0.630576 -1.233163 0.677482 -0.575880 1.856346 0.165946 -0.601781 -1.339676 -0.559027 0.000000 0.000000 0.000000 0.220928 0.731109 -0.451256 0.235379 -1.849740 -1.120426 0.126745 0.474652 0.185536 0.000000 0.000000 0.000000 
-1937.565430 800.972656 1139.531982 9.968802 0.357651 0.017448 -0.418189 -0.853285 -0.494976 -0.380002 0.167484 0.086095 -0.391679 -0.138307 -0.052047 -0.414631 1.145788 1.725966 0.000000 0.000000 0.000000 1.975975 0.026543 -0.153923 0.172683 0.249688 0.781279 -0.037439 -0.478268 -2.500445 0.000000 0.000000 0.000000 -2.287170 -0.210750 0.172943 -0.108555 0.399670 -0.782446 -0.285373 -2.092588 -0.194464 0.000000 0.000000 0.000000 -0.626148 -1.229328 0.681881 -0.571369 1.864881 0.169793 -0.597261 -1.338086 -0.556641 0.000000 0.000000 0.000000 0.226426 0.732595 -0.446202 0.240865 -1.829429 -1.117427 0.131602 0.461308 0.184268 0.000000 0.000000 0.000000 
-1937.631348 801.009338 1139.517944 9.954566 0.344599 0.009831 -0.417882 -0.853834 -0.492108 -0.379863 0.167425 0.084929 -0.391419 -0.137737 -0.051506 -0.415735 1.149589 1.730672 0.000000 0.000000 0.000000 1.972902 0.035449 -0.146543 0.172368 0.259090 0.783011 -0.037925 -0.470505 -2.501257 0.000000 0.000000 0.000000 -2.288946 -0.205633 0.168794 -0.107684 0.403728 -0.779368 -0.285475 -2.092721 -0.196318 0.000000 0.000000 0.000000 -0.621626 -1.223107 0.685763 -0.566823 1.871971 0.172189 -0.592792 -1.336213 -0.554218 0.000000 0.000000 0.000000 0.231870 0.735398 -0.442634 0.246287 -1.808571 -1.113906 0.136438 0.448752 0.183201 0.000000 0.000000 0.000000 
-1937.693359 801.047424 1139.505005 9.939411 0.331202 0.003375 -0.417417 -0.855138 -0.489578 -0.379513 0.167552 0.084233 -0.390965 -0.137053 -0.050733 -0.416212 1.154285 1.733388 0.000000 0.000000 0.000000 1.970575 0.044900 -0.139127 0.172158 0.268777 0.786798 -0.038286 -0.464802 -2.501989 0.000000 0.000000 0.000000 -2.290974 -0.201510 0.163655 -0.106545 0.405983 -0.773061 -0.285561 -2.092158 -0.199112 0.000000 0.000000 0.000000 -0.616328 -1.216015 0.688806 -0.561530 1.878377 0.173419 -0.587684 -1.334394 -0.551517 0.000000 0.000000 0.000000 0.237799 0.738403 -0.439908 0.252196 -1.786873 -1.111331 0.141571 0.436725 0.182412 0.000000 0.000000 0.000000 
-1937.752319 801.084839 1139.494995 9.924576 0.319088 -0.002298 -0.417363 -0.857170 -0.486993 -0.379552 0.167632 0.084018 -0.391002 -0.137250 -0.050912 -0.416420 1.159618 1.735311 0.000000 0.000000 0.000000 1.969414 0.053755 -0.131024 0.171985 0.278062 0.791584 -0.038617 -0.458686 -2.501116 0.000000 0.000000 0.000000 -2.292014 -0.198327 0.160175 -0.105505 0.407427 -0.766655 -0.285456 -2.091134 -0.200356 0.000000 0.000000 0.000000 -0.611613 -1.209866 0.691076 -0.556827 1.884034 0.174666 -0.583115 -1.331172 -0.548761 0.000000 0.000000 0.000000 0.243806 0.739844 -0.437231 0.258191 -1.764796 -1.110339 0.146556 0.425815 0.181851 0.000000 0.000000 0.000000 
